<svg width="383" height="100" viewBox="0 0 383 100" fill="none" xmlns="http://www.w3.org/2000/svg">
<path d="M210.4 64.1C208.9 62.9 206.8 63.1 205.5 64.6C202.2 68.7 194 67.7 191.9 66.8C188.8 65.6 187.3 63 187.3 59.2V34.3H203.6C205.6 34.3 207.3 32.7 207.3 30.6C207.3 28.6 205.7 26.9 203.6 26.9H187.3V8.3C187.3 6.4 185.8 4.8 183.8 4.8C181.9 4.8 180.4 6.3 180.4 8.3V59.2C180.4 65.8 183.6 70.9 189.3 73.2C191.1 73.9 193.9 74.5 197 74.5C201.9 74.5 207.5 73.1 210.9 68.9C212.1 67.4 211.9 65.3 210.4 64.1Z" fill="white"/>
<path d="M153.8 74.8C152.7 74.8 151.5 74.7 150.4 74.6C138.4 73.1 131.2 67.5 131.2 59.8C131.2 57.8 132.8 56.1 134.9 56.1C136.9 56.1 138.6 57.8 138.6 59.8C138.6 63.4 143.6 66.3 151.4 67.3C159.2 68.3 164.7 64.4 165.5 61.4C166 59.6 165.8 58 165 56.7C164.1 55.3 162.6 54.4 160.3 53.9C144.6 51.1 134.2 48.5 132.7 38.6C132.2 35 133.2 31.4 135.6 28.6C139 24.6 144.9 22.3 151.8 22.3C164.4 22.3 172.6 27.9 172.6 36.7C172.6 38.7 170.9 40.4 168.9 40.4C166.9 40.4 165.2 38.7 165.2 36.7C165.2 31.5 158 29.7 151.8 29.7C147.2 29.7 143.2 31.1 141.2 33.4C140.2 34.6 139.7 36 140 37.5C140.6 41.2 143.9 43.5 161.7 46.6H161.8C167.2 47.7 170 50.6 171.3 52.7C173.2 55.7 173.7 59.4 172.7 63.2C170.9 69.3 163.7 74.8 153.8 74.8Z" fill="white"/>
<path d="M238.6 74.8C224.1 74.8 212.3 63 212.3 48.6C212.3 34.1 224.1 22.4 238.6 22.4C251.8 22.4 263.1 32.3 264.7 45.4C264.9 47.1 264 48.5 263.4 49.2C262.5 50.2 261.3 50.8 260.1 50.8H219.8C220.8 60.2 228.9 67.6 238.6 67.6C245.1 67.6 251.7 64.2 254.5 59.5C255.5 57.7 257.8 57.2 259.5 58.2C261.2 59.2 261.9 61.5 260.8 63.2C256.8 70 247.8 74.8 238.6 74.8ZM220.4 43.3H256.8C254.5 35.4 247.1 29.7 238.6 29.7C230 29.7 222.7 35.4 220.4 43.3Z" fill="white"/>
<path d="M297.9 22.3C290.5 22.3 283.8 25.4 279 30.3V25.9C279 23.9 277.3 22.2 275.3 22.2C273.3 22.2 271.6 23.8 271.6 25.9V89C271.6 91 273.2 92.7 275.3 92.7C277.3 92.7 279 91 279 89V66.7C283.8 71.7 290.5 74.7 297.9 74.7C312.4 74.7 324.1 62.9 324.1 48.5C324.1 34.1 312.4 22.3 297.9 22.3ZM297.9 67.4C287.5 67.4 279 58.9 279 48.5C279 38.1 287.5 29.6 297.9 29.6C308.3 29.6 316.8 38.1 316.8 48.5C316.8 58.9 308.3 67.4 297.9 67.4Z" fill="white"/>
<path d="M356.2 23.1C363.6 23.1 370.3 26.2 375.1 31.1V26.7C375.1 24.7 376.8 23 378.8 23C380.8 23 382.5 24.6 382.5 26.7V73.2857C382.5 75.2857 380.9 76.9857 378.8 76.9857C376.8 76.9857 375.1 75.2857 375.1 73.2857V67.5C370.3 72.5 363.6 75.5 356.2 75.5C341.7 75.5 330 63.7 330 49.3C330 34.9 341.7 23.1 356.2 23.1ZM356.2 68.2C366.6 68.2 375.1 59.7 375.1 49.3C375.1 38.9 366.6 30.4 356.2 30.4C345.8 30.4 337.3 38.9 337.3 49.3C337.3 59.7 345.8 68.2 356.2 68.2Z" fill="white"/>
<path d="M90.8 26.3L74.4 9.8C68 3.5 59.6 0 50.6 0C41.6 0 33.2 3.5 26.9 9.8L10.5 26.3C4.1 32.6 0.6 41 0.6 50C0.6 59 4.1 67.4 10.4 73.7L26.8 90.1C33.1 96.4 41.6 99.9 50.5 99.9C59.2 99.9 67.5 96.6 73.8 90.5L90.6 73.7C96.9 67.4 100.4 58.9 100.4 50C100.6 41 97.2 32.6 90.8 26.3Z" fill="white"/>
<path d="M62.7 78.9C59.6 81.9 55.3 83.8 50.7 83.8C45.9 83.8 41.6 81.9 38.4 78.7L46.5 70.6C47.6 71.7 49 72.3 50.7 72.3C52.3 72.3 53.8 71.6 54.9 70.6L71.3 54.2C72.4 53.1 73 51.7 73 50C73 48.4 72.3 46.9 71.3 45.8C70.2 44.7 68.8 44.1 67.1 44.1C65.4 44.1 64 44.8 62.9 45.8L46.5 62.3C43.4 65.4 39 67.4 34.2 67.4C29.4 67.4 25.1 65.4 21.9 62.3C18.8 59.2 16.8 54.8 16.8 50C16.8 45.2 18.7 40.9 21.9 37.7L38.3 21.3C41.4 18.2 45.8 16.2 50.6 16.2C55.4 16.2 59.7 18.1 62.9 21.3L54.8 29.4C53.7 28.3 52.3 27.7 50.6 27.7C48.9 27.7 47.5 28.4 46.4 29.4L30 45.8C28.9 46.9 28.3 48.3 28.3 50C28.3 51.6 29 53.1 30 54.2C31.1 55.3 32.5 55.9 34.2 55.9C35.8 55.9 37.3 55.2 38.4 54.2L54.8 37.8C57.9 34.7 62.3 32.7 67.1 32.7C71.9 32.7 76.2 34.6 79.4 37.8C82.5 40.9 84.5 45.3 84.5 50.1C84.5 54.9 82.6 59.2 79.4 62.4L62.7 78.9Z" fill="#222222"/>
</svg>
